<svg id="Capa_1" data-name="Capa 1" xmlns="http://www.w3.org/2000/svg" viewBox="0 0 800 800"><defs><style>.cls-1{fill:#3c3c3a;}</style></defs><title>Logozivug</title><polygon class="cls-1" points="86.04 753.57 86.06 753.55 86.06 753.57 86.04 753.57"/><path class="cls-1" d="M736.29,21.71l-.2,10,.28-10Z"/><path class="cls-1" d="M614.5,199.63l-.3.79c.3-.16.59-.37.89-.57ZM736,34.19v2.16l0,.17-.24,4.2.28-.1V34.15l.05-2.46ZM614.5,199.63l-.3.79c.3-.16.59-.37.89-.57Z"/><path class="cls-1" d="M728.51,11.13c-32.38,10.3-84,27.75-146.21,52.31l-4.9,2c-12,4.77-24.39,9.7-37.45,15-17.24,7.09-30.83,12.87-44,18.73-26.42,11.63-51.09,23.33-75.41,35.79l.06.1c-3.25,1.39-10.82,5.29-30.15,16.26-16.67,9.48-42.36,24.61-70.06,43.07-10.2,6.78-19.13,12.93-27.27,18.78-47.32,33.92-82.49,66.24-104.49,96A192.73,192.73,0,0,0,176,328.56c-1.82,3.32-3.56,6.55-5.12,10-6.78,14.87-11.49,29.13-11.71,29.82-6.32,20.18-9.09,39.39-11.15,57.16-.67,6-1.33,12.18-2,18.75l-.63,6.22c-2.46,22.85-5.51,51.27-11.79,88.07-1.05,6.16-2.25,12.59-3.38,18.65-3.35,17.85-7.53,37.65-12.42,58.84-2.46,10.7-5.29,22.3-8.67,35.49-1.35,5.57-2.9,11.65-4.8,18.6-7.22,27.31-15.23,54.56-23.84,81-.06.17-.1.33-.16.49a5.23,5.23,0,0,0-.32,1,.25.25,0,0,0,0,.12l-1.28,4.48-6.42,22.57,20.91-6.53,4.44-1.39,1.43-.47c.49-.18,1-.32,1.5-.48,1-.32,2-.63,3-1,.44-.14.89-.28,1.33-.44a609.77,609.77,0,0,0,179.88-92.92c8.28-6.22,16.38-12.63,24.12-19A610.19,610.19,0,0,0,456.68,477c11.66-9.13,22.24-18.2,32.36-27.71,4.22-3.92,8.38-8,12.44-12.06,1.94-2,4.19-4.2,6.67-6.81,27-27.55,51.87-59.79,74.09-95.76,4.29-6.89,8-13.07,11.19-18.85a716,716,0,0,0,45.35-95.34c25.8-17.52,45.05-37.19,60.46-61.75,21.29-33.27,33.57-73,36.52-118l.24-4.2,0-.17V34.19l.07-2.5.2-10,.26-13.15Zm-439,623c-14.3,11.83-28.81,22.76-43.15,32.52a572,572,0,0,1-102,55.79C159.08,706,173.92,690.42,188.75,676c6.43-6.26,13.09-12.5,19.8-18.58,31.53-28.73,59.59-49.73,83.4-67.15,7.6-5.49,13.23-9.59,18.26-13.33,6.18-4.64,12.49-9.27,18.75-13.75,10.2-7.34,19.35-13.52,27-18.59,12.75-8.48,24.26-15.71,34.43-22.1l2-1.29c.88-.54,1.75-1.11,2.62-1.66A579.22,579.22,0,0,1,289.51,634.17ZM562.08,309.68c-3.57,5.94-7.35,12-11.53,18.5C519.93,375.63,492,403.83,480,415.91c-1.94,2-4,3.94-6,5.94-6.6,6.4-13.21,12.42-20.24,18.38-6,5.07-12.12,10-18.26,14.77l-.12.1c-.77.6-1.53,1.21-2.3,1.79-20.81,16.18-38.46,27.19-58.84,39.92l-2.37,1.47c-15.81,9.92-33.75,21.17-55.12,36.34-8.81,6.24-16.91,12.16-24.91,18.22l-.26.19c-.2.16-.41.3-.59.46l-2,1.45c-4.68,3.46-9.51,7-15,10.83l-2,1.5c-26.85,19.75-60.26,44.35-99.27,81.28-6.56,6.18-13.09,12.54-19.35,18.85-1.25,1.27-2.52,2.54-3.75,3.83a956.24,956.24,0,0,1,136.85-200c56.4-63.45,115-124.8,211.65-178,22.36-12.33,42.54-21.86,64.72-32.18,12.08-5.64,22.79-10.75,32.75-15.78A652.38,652.38,0,0,1,562.08,309.68ZM673.77,142.59C657.65,168,638,185.37,615.09,199.85c-.3.2-.59.41-.89.57-19.13,12-40.56,22.08-64.26,33.19-19.89,9.33-42.44,19.91-66.33,33.08C382.79,322.32,319.77,388.36,263.85,451.22A981.06,981.06,0,0,0,151.2,605.79c3.56-16.28,6.69-31.82,9.35-46.38,1.3-6.89,2.43-13.37,3.36-18.83C170,504.22,173,476,175.46,453.42l.26-2.36c.08-1,.2-2,.33-3.05s.18-1.72.26-2.49l.62-5.65c.49-4.53,1-8.83,1.44-12.95,1.88-15.64,4.34-32.42,9.61-49.25a275,275,0,0,1,10.47-26.26,124.5,124.5,0,0,1,9.39-16.6,195.34,195.34,0,0,1,13.57-18.1C245.47,288,283,256.55,332.86,223.12c9.89-6.6,19.55-12.84,28.74-18.56,41.09-25.72,73.95-42.66,74.3-42.83,36-18.6,72-35.43,110.11-51.44,16.86-7.13,32-13.15,45.89-18.59,2.5-.93,5-1.88,7.31-2.79l4.26-1.65c34.5-13.5,69.23-26,101.08-36.48C700.82,85,690.47,115.86,673.77,142.59Z"/></svg>